#!OML:ASF E:\Steps\Project 1\Capture day 1\Session 2\Subject.ASF
:FULLY-SPECIFIED
:DEGREES
897
root -4.85216 15.7225 -11.5657 -143.723 -85.0093 165.127
lowerback -29.995 -0.334668 -7.62429
upperback -0.370893 2.43695 -3.03964
thorax 15.2202 0.528473 1.7641
lowerneck 19.8243 0.247434 -20.124
upperneck -5.14319 -2.62788 23.6807
head -4.28462 -2.54719 11.6124
rclavicle 5.96354e-015 -6.36111e-014
rhumerus -37.8178 -13.6927 -83.3478
rradius 34.7841
rwrist -2.74499
rhand -4.25979 -53.3639
rfingers 7.12502
rthumb 21.5045 277.81
lclavicle 5.96354e-015 -6.36111e-014
lhumerus -33.0626 17.0193 69.9095
lradius 11.5843
lwrist -13.5757
lhand -19.0809 -7.9901
lfingers 7.12502
lthumb 7.2271 21.8665
rfemur -21.0308 -2.32763 18.7791
rtibia 50.7874
rfoot -4.84094 -0.328774
rtoes -21.766
lfemur -40.1642 -6.58917 -15.7622
ltibia 17.7075
lfoot -0.344629 4.72144
ltoes -28.8574
898
root -4.93727 15.7465 -11.5421 -142.393 -84.6633 163.877
lowerback -29.7677 -0.33699 -7.75482
upperback -0.426347 2.47041 -3.21265
thorax 15.049 0.54548 1.65495
lowerneck 20.625 0.416504 -17.5946
upperneck -7.36052 -1.63829 22.4236
head -5.32978 -2.08561 10.7148
rclavicle -2.127e-014 -2.22639e-014
rhumerus -38.0321 -13.5662 -83.4875
rradius 34.2993
rwrist -2.32311
rhand -2.24516 -52.9555
rfingers 7.12502
rthumb 23.4382 278.452
lclavicle -2.127e-014 -2.22639e-014
lhumerus -33.9347 20.9965 68.7191
lradius 12.7023
lwrist -17.7412
lhand -20.0649 -8.37574
lfingers 7.12502
lthumb 6.27716 21.5112
rfemur -22.3395 -2.64647 18.5574
rtibia 52.8131
rfoot -4.49111 -1.19225
rtoes -25.2468
lfemur -39.8547 -6.44064 -16.223
ltibia 17.691
lfoot -0.503937 4.57238
ltoes -29.2095
899
root -5.02517 15.7691 -11.5229 -141.472 -84.2094 162.932
lowerback -29.5777 -0.538132 -8.0684
upperback -0.409255 2.29601 -3.23471
thorax 14.9776 0.448992 1.72767
lowerneck 19.9284 0.415126 -20.0982
upperneck -6.06487 -2.27999 23.4255
head -4.65161 -2.35768 11.5286
rclavicle 1.25234e-014 -3.33958e-014
rhumerus -38.1236 -12.8725 -83.742
rradius 33.9323
rwrist -2.0616
rhand -1.70656 -52.6222
rfingers 7.12502
rthumb 23.9548 278.852
lclavicle 1.25234e-014 -3.33958e-014
lhumerus -33.2823 16.414 71.318
lradius 14.41
lwrist -12.1384
lhand -20.614 -7.97321
lfingers 7.12502
lthumb 5.74703 21.9289
rfemur -23.4704 -2.62721 18.2559
rtibia 54.7562
rfoot -4.84358 -2.6208
rtoes -23.5863
lfemur -39.2435 -6.72084 -16.4921
ltibia 17.4032
lfoot -0.804916 4.95449
ltoes -29.3739
900
root -5.11633 15.787 -11.5024 -143.076 -83.8983 164.496
lowerback -29.4428 -0.766611 -8.06225
upperback -0.334577 1.97413 -3.12074
thorax 15.0233 0.302828 1.72288
lowerneck 20.175 0.732929 -19.7784
upperneck -7.01712 -1.67719 23.1667
head -5.11905 -2.06085 11.3796
rclavicle 2.38542e-015 -7.95139e-015
rhumerus -38.0572 -12.1474 -83.9945
rradius 33.6126
rwrist -1.84198
rhand -2.28765 -52.5396
rfingers 7.12502
rthumb 23.3975 278.863
lclavicle 2.38542e-015 -7.95139e-015
lhumerus -32.8845 16.9263 71.7369
lradius 15.2512
lwrist -11.6464
lhand -20.8814 -8.32402
lfingers 7.12502
lthumb 5.48885 21.5849
rfemur -24.4921 -2.69346 18.2577
rtibia 56.5064
rfoot -5.56795 -4.09115
rtoes -20.6104
lfemur -38.6714 -6.27487 -16.8006
ltibia 17.3057
lfoot -0.983604 4.65477
ltoes -31.2155
901
root -5.20275 15.8027 -11.475 -143.654 -83.675 165.065
lowerback -29.2808 -0.92634 -8.03123
upperback -0.228129 1.73654 -3.00532
thorax 15.0893 0.195593 1.74028
lowerneck 19.2187 0.675122 -21.4108
upperneck -6.08982 -2.09164 23.5245
head -4.56346 -2.19009 11.7736
rclavicle 1.35174e-014 -2.22639e-014
rhumerus -37.9235 -11.8716 -83.9238
rradius 33.245
rwrist -1.32638
rhand -2.9722 -52.2373
rfingers 7.12502
rthumb 22.7406 279.083
lclavicle 1.35174e-014 -2.22639e-014
lhumerus -32.3038 17.0368 72.5971
lradius 16.2413
lwrist -11.024
lhand -21.291 -8.7747
lfingers 7.12502
lthumb 5.09333 21.1441
rfemur -25.5899 -3.13571 18.2509
rtibia 58.1287
rfoot -6.24956 -5.53223
rtoes -26.1485
lfemur -38.2322 -6.14369 -17.1366
ltibia 17.2903
lfoot -1.09169 4.47494
ltoes -34.3201
902
root -5.27819 15.823 -11.4445 -143.449 -83.6401 164.981
lowerback -29.1141 -1.03768 -7.93957
upperback -0.197729 1.53804 -2.93615
thorax 15.0648 0.114798 1.68982
lowerneck 19.1402 1.1775 -18.282
upperneck -8.21213 -0.404419 22.2429
head -5.5959 -1.36515 10.6597
rclavicle -1.51076e-014 8.74653e-014
rhumerus -37.9203 -12.0651 -83.5908
rradius 32.8983
rwrist -0.499655
rhand -3.33044 -51.9797
rfingers 7.12502
rthumb 22.3968 279.299
lclavicle -1.51076e-014 8.74653e-014
lhumerus -31.5324 12.2821 74.8014
lradius 17.9374
lwrist -5.8129
lhand -21.6321 -8.57591
lfingers 7.12502
lthumb 4.76402 21.3505
rfemur -26.9394 -3.85071 18.3327
rtibia 59.6919
rfoot -6.7132 -7.10115
rtoes -25.5072
lfemur -37.9848 -6.66939 -17.1846
ltibia 17.1097
lfoot -1.13105 4.88078
ltoes -36.7035
903
root -5.35066 15.8446 -11.4158 -144.129 -83.7298 165.898
lowerback -29.0329 -1.16433 -7.70457
upperback -0.234991 1.26995 -2.85593
thorax 15.0102 0.0137466 1.54712
lowerneck 18.9317 1.03166 -19.9273
upperneck -7.5684 -1.02355 22.7214
head -5.21771 -1.63023 11.1627
rclavicle -1.19271e-015 -1.43125e-014
rhumerus -38.055 -12.2131 -83.2821
rradius 32.7001
rwrist 0.160677
rhand -3.36195 -52.2475
rfingers 7.12502
rthumb 22.3666 279.027
lclavicle -1.19271e-015 -1.43125e-014
lhumerus -31.1305 12.1151 75.3476
lradius 19.0435
lwrist -5.21083
lhand -21.4807 -8.82897
lfingers 7.12502
lthumb 4.91022 21.0941
rfemur -28.4386 -4.47485 18.5389
rtibia 61.1035
rfoot -7.39522 -8.42637
rtoes -24.3194
lfemur -37.9826 -6.97203 -17.0984
ltibia 17.0617
lfoot -1.18623 5.10628
ltoes -38.1101
904
root -5.42437 15.8624 -11.3794 -143.455 -83.8687 165.53
lowerback -29.0119 -1.38121 -7.52229
upperback -0.297939 0.903039 -2.77627
thorax 14.9573 -0.136051 1.39258
lowerneck 19.1598 1.21637 -18.6959
upperneck -8.73543 -0.43558 21.6932
head -5.73868 -1.31577 10.5509
rclavicle 3.18055e-015 -3.49861e-014
rhumerus -38.2351 -12.1698 -83.0317
rradius 32.6089
rwrist 0.657459
rhand -3.64595 -52.4513
rfingers 7.12502
rthumb 22.0939 278.791
lclavicle 3.18055e-015 -3.49861e-014
lhumerus -30.8717 10.9603 76.1233
lradius 20.5961
lwrist -3.4858
lhand -21.4968 -8.70809
lfingers 7.12502
lthumb 4.89462 21.2154
rfemur -29.821 -4.6598 18.475
rtibia 62.228
rfoot -8.78211 -9.16389
rtoes -18.2589
lfemur -38.1502 -7.6306 -17.046
ltibia 17.1883
lfoot -1.4294 5.46735
ltoes -37.7732
905
root -5.5151 15.8888 -11.4017 -147.107 -83.4758 168.667
lowerback -28.5594 -1.47127 -7.97907
upperback -0.107976 0.879864 -2.49033
thorax 14.9515 -0.184179 1.94586
lowerneck 18.9329 1.21357 -20.0423
upperneck -8.22185 -0.728052 22.4731
head -5.47728 -1.45744 11.0953
rclavicle -9.74045e-015 5.00937e-014
rhumerus -38.4687 -12.4108 -82.6667
rradius 32.5288
rwrist 1.24472
rhand -4.20187 -52.5485
rfingers 7.12502
rthumb 21.5601 278.632
lclavicle -9.74045e-015 5.00937e-014
lhumerus -30.5039 9.42342 76.9323
lradius 22.0664
lwrist -1.78488
lhand -22.478 -8.44536
lfingers 7.12502
lthumb 3.94716 21.4978
rfemur -29.7379 -3.58699 19.0247
rtibia 62.4925
rfoot -8.96135 -10.6716
rtoes -26.2343
lfemur -36.6543 -7.27134 -16.862
ltibia 16.4942
lfoot -1.72429 5.61241
ltoes -36.0288
